<mxfile host="app.diagrams.net" agent="Mozilla/5.0 (Windows NT 10.0; Win64; x64) AppleWebKit/537.36 (KHTML, like Gecko) Chrome/134.0.0.0 Whale/4.31.304.16 Safari/537.36" version="26.2.8">
  <diagram name="페이지-1" id="GskfBj6XqZg_wejS5Stw">
    <mxGraphModel dx="972" dy="647" grid="1" gridSize="10" guides="1" tooltips="1" connect="1" arrows="1" fold="1" page="1" pageScale="1" pageWidth="827" pageHeight="1169" math="0" shadow="0">
      <root>
        <mxCell id="0" />
        <mxCell id="1" parent="0" />
        <mxCell id="6aV7GNjAsovPogsCfTCr-1" value="sd 회원가입 기능" style="shape=umlFrame;whiteSpace=wrap;html=1;pointerEvents=0;recursiveResize=0;container=1;collapsible=0;width=160;" vertex="1" parent="1">
          <mxGeometry x="40" y="120" width="700" height="340" as="geometry" />
        </mxCell>
        <mxCell id="6aV7GNjAsovPogsCfTCr-2" value="guest" style="shape=umlActor;verticalLabelPosition=bottom;verticalAlign=top;html=1;outlineConnect=0;" vertex="1" parent="6aV7GNjAsovPogsCfTCr-1">
          <mxGeometry x="54" y="90" width="30" height="60" as="geometry" />
        </mxCell>
        <mxCell id="6aV7GNjAsovPogsCfTCr-3" value=":SignUpUI" style="shape=umlBoundary;whiteSpace=wrap;html=1;" vertex="1" parent="6aV7GNjAsovPogsCfTCr-1">
          <mxGeometry x="194" y="80" width="100" height="80" as="geometry" />
        </mxCell>
        <mxCell id="6aV7GNjAsovPogsCfTCr-4" value=":SignUp" style="ellipse;shape=umlControl;whiteSpace=wrap;html=1;" vertex="1" parent="6aV7GNjAsovPogsCfTCr-1">
          <mxGeometry x="550" y="80" width="70" height="80" as="geometry" />
        </mxCell>
        <mxCell id="6aV7GNjAsovPogsCfTCr-5" value=":Member" style="ellipse;shape=umlEntity;whiteSpace=wrap;html=1;" vertex="1" parent="6aV7GNjAsovPogsCfTCr-1">
          <mxGeometry x="444" y="240" width="80" height="80" as="geometry" />
        </mxCell>
        <mxCell id="6aV7GNjAsovPogsCfTCr-6" value="" style="endArrow=none;html=1;rounded=0;" edge="1" parent="6aV7GNjAsovPogsCfTCr-1">
          <mxGeometry width="50" height="50" relative="1" as="geometry">
            <mxPoint x="294" y="120" as="sourcePoint" />
            <mxPoint x="544.0002426129174" y="119.85106486218262" as="targetPoint" />
          </mxGeometry>
        </mxCell>
        <mxCell id="6aV7GNjAsovPogsCfTCr-7" value="" style="endArrow=none;html=1;rounded=0;entryX=0.412;entryY=0.955;entryDx=0;entryDy=0;entryPerimeter=0;exitX=1;exitY=0;exitDx=0;exitDy=0;" edge="1" parent="6aV7GNjAsovPogsCfTCr-1" source="6aV7GNjAsovPogsCfTCr-5">
          <mxGeometry width="50" height="50" relative="1" as="geometry">
            <mxPoint x="514" y="290" as="sourcePoint" />
            <mxPoint x="572.8399999999999" y="156.4000000000001" as="targetPoint" />
          </mxGeometry>
        </mxCell>
        <mxCell id="6aV7GNjAsovPogsCfTCr-8" value="" style="endArrow=none;html=1;rounded=0;entryX=-0.004;entryY=0.473;entryDx=0;entryDy=0;entryPerimeter=0;" edge="1" parent="6aV7GNjAsovPogsCfTCr-1">
          <mxGeometry width="50" height="50" relative="1" as="geometry">
            <mxPoint x="94.4" y="120.89999999999999" as="sourcePoint" />
            <mxPoint x="194.00000000000014" y="119.11000000000003" as="targetPoint" />
          </mxGeometry>
        </mxCell>
        <mxCell id="6aV7GNjAsovPogsCfTCr-9" value="" style="endArrow=classic;html=1;rounded=0;entryX=0.729;entryY=0.16;entryDx=0;entryDy=0;entryPerimeter=0;" edge="1" parent="6aV7GNjAsovPogsCfTCr-1">
          <mxGeometry width="50" height="50" relative="1" as="geometry">
            <mxPoint x="334.85" y="140" as="sourcePoint" />
            <mxPoint x="505.15" y="140.0000000000001" as="targetPoint" />
          </mxGeometry>
        </mxCell>
        <mxCell id="6aV7GNjAsovPogsCfTCr-10" value="" style="endArrow=classic;html=1;rounded=0;entryX=0.414;entryY=0.38;entryDx=0;entryDy=0;entryPerimeter=0;exitX=0.714;exitY=0.26;exitDx=0;exitDy=0;exitPerimeter=0;" edge="1" parent="6aV7GNjAsovPogsCfTCr-1">
          <mxGeometry width="50" height="50" relative="1" as="geometry">
            <mxPoint x="504.9" y="89.99999999999989" as="sourcePoint" />
            <mxPoint x="335.09999999999997" y="89.99999999999989" as="targetPoint" />
            <Array as="points">
              <mxPoint x="415.3" y="90" />
            </Array>
          </mxGeometry>
        </mxCell>
        <mxCell id="6aV7GNjAsovPogsCfTCr-11" value="" style="endArrow=classic;html=1;rounded=0;" edge="1" parent="6aV7GNjAsovPogsCfTCr-1">
          <mxGeometry width="50" height="50" relative="1" as="geometry">
            <mxPoint x="114" y="100" as="sourcePoint" />
            <mxPoint x="174" y="100" as="targetPoint" />
          </mxGeometry>
        </mxCell>
        <mxCell id="6aV7GNjAsovPogsCfTCr-12" value="" style="endArrow=classic;html=1;rounded=0;entryX=0.714;entryY=0.42;entryDx=0;entryDy=0;entryPerimeter=0;exitX=0.714;exitY=0.26;exitDx=0;exitDy=0;exitPerimeter=0;" edge="1" parent="6aV7GNjAsovPogsCfTCr-1">
          <mxGeometry width="50" height="50" relative="1" as="geometry">
            <mxPoint x="550.2" y="159.9999999999999" as="sourcePoint" />
            <mxPoint x="499.99999999999994" y="230.0000000000001" as="targetPoint" />
            <Array as="points" />
          </mxGeometry>
        </mxCell>
        <mxCell id="6aV7GNjAsovPogsCfTCr-13" value="2. enterInfo" style="text;html=1;align=center;verticalAlign=middle;whiteSpace=wrap;rounded=0;" vertex="1" parent="6aV7GNjAsovPogsCfTCr-1">
          <mxGeometry x="100" y="60" width="80" height="30" as="geometry" />
        </mxCell>
        <mxCell id="6aV7GNjAsovPogsCfTCr-14" value="3. compareInfo" style="text;html=1;align=center;verticalAlign=middle;whiteSpace=wrap;rounded=0;" vertex="1" parent="6aV7GNjAsovPogsCfTCr-1">
          <mxGeometry x="360" y="156" width="120" height="30" as="geometry" />
        </mxCell>
        <mxCell id="6aV7GNjAsovPogsCfTCr-15" value="1. startInterface" style="text;html=1;align=center;verticalAlign=middle;whiteSpace=wrap;rounded=0;" vertex="1" parent="6aV7GNjAsovPogsCfTCr-1">
          <mxGeometry x="360" y="29" width="120" height="30" as="geometry" />
        </mxCell>
        <mxCell id="6aV7GNjAsovPogsCfTCr-16" value="5. showInfo" style="text;html=1;align=center;verticalAlign=middle;whiteSpace=wrap;rounded=0;" vertex="1" parent="6aV7GNjAsovPogsCfTCr-1">
          <mxGeometry x="360" y="55" width="120" height="30" as="geometry" />
        </mxCell>
        <mxCell id="6aV7GNjAsovPogsCfTCr-17" value="4. [For all Members] getMember" style="text;html=1;align=center;verticalAlign=middle;whiteSpace=wrap;rounded=0;" vertex="1" parent="6aV7GNjAsovPogsCfTCr-1">
          <mxGeometry x="550" y="190" width="120" height="30" as="geometry" />
        </mxCell>
        <mxCell id="6aV7GNjAsovPogsCfTCr-18" value="sd 로그인 기능" style="shape=umlFrame;whiteSpace=wrap;html=1;pointerEvents=0;recursiveResize=0;container=1;collapsible=0;width=160;" vertex="1" parent="1">
          <mxGeometry x="40" y="480" width="700" height="340" as="geometry" />
        </mxCell>
        <mxCell id="6aV7GNjAsovPogsCfTCr-19" value="user" style="shape=umlActor;verticalLabelPosition=bottom;verticalAlign=top;html=1;outlineConnect=0;" vertex="1" parent="6aV7GNjAsovPogsCfTCr-18">
          <mxGeometry x="54" y="90" width="30" height="60" as="geometry" />
        </mxCell>
        <mxCell id="6aV7GNjAsovPogsCfTCr-20" value=":SignInUI" style="shape=umlBoundary;whiteSpace=wrap;html=1;" vertex="1" parent="6aV7GNjAsovPogsCfTCr-18">
          <mxGeometry x="194" y="80" width="100" height="80" as="geometry" />
        </mxCell>
        <mxCell id="6aV7GNjAsovPogsCfTCr-21" value=":SignIn" style="ellipse;shape=umlControl;whiteSpace=wrap;html=1;" vertex="1" parent="6aV7GNjAsovPogsCfTCr-18">
          <mxGeometry x="550" y="80" width="70" height="80" as="geometry" />
        </mxCell>
        <mxCell id="6aV7GNjAsovPogsCfTCr-22" value=":Member" style="ellipse;shape=umlEntity;whiteSpace=wrap;html=1;" vertex="1" parent="6aV7GNjAsovPogsCfTCr-18">
          <mxGeometry x="444" y="240" width="80" height="80" as="geometry" />
        </mxCell>
        <mxCell id="6aV7GNjAsovPogsCfTCr-23" value="" style="endArrow=none;html=1;rounded=0;" edge="1" parent="6aV7GNjAsovPogsCfTCr-18">
          <mxGeometry width="50" height="50" relative="1" as="geometry">
            <mxPoint x="294" y="120" as="sourcePoint" />
            <mxPoint x="544.0002426129174" y="119.85106486218262" as="targetPoint" />
          </mxGeometry>
        </mxCell>
        <mxCell id="6aV7GNjAsovPogsCfTCr-24" value="" style="endArrow=none;html=1;rounded=0;entryX=0.412;entryY=0.955;entryDx=0;entryDy=0;entryPerimeter=0;exitX=1;exitY=0;exitDx=0;exitDy=0;" edge="1" parent="6aV7GNjAsovPogsCfTCr-18" source="6aV7GNjAsovPogsCfTCr-22">
          <mxGeometry width="50" height="50" relative="1" as="geometry">
            <mxPoint x="514" y="290" as="sourcePoint" />
            <mxPoint x="572.8399999999999" y="156.4000000000001" as="targetPoint" />
          </mxGeometry>
        </mxCell>
        <mxCell id="6aV7GNjAsovPogsCfTCr-25" value="" style="endArrow=none;html=1;rounded=0;entryX=-0.004;entryY=0.473;entryDx=0;entryDy=0;entryPerimeter=0;" edge="1" parent="6aV7GNjAsovPogsCfTCr-18">
          <mxGeometry width="50" height="50" relative="1" as="geometry">
            <mxPoint x="94.4" y="120.89999999999999" as="sourcePoint" />
            <mxPoint x="194.00000000000014" y="119.11000000000003" as="targetPoint" />
          </mxGeometry>
        </mxCell>
        <mxCell id="6aV7GNjAsovPogsCfTCr-26" value="" style="endArrow=classic;html=1;rounded=0;entryX=0.729;entryY=0.16;entryDx=0;entryDy=0;entryPerimeter=0;" edge="1" parent="6aV7GNjAsovPogsCfTCr-18">
          <mxGeometry width="50" height="50" relative="1" as="geometry">
            <mxPoint x="334.85" y="140" as="sourcePoint" />
            <mxPoint x="505.15" y="140.0000000000001" as="targetPoint" />
          </mxGeometry>
        </mxCell>
        <mxCell id="6aV7GNjAsovPogsCfTCr-27" value="" style="endArrow=classic;html=1;rounded=0;entryX=0.414;entryY=0.38;entryDx=0;entryDy=0;entryPerimeter=0;exitX=0.714;exitY=0.26;exitDx=0;exitDy=0;exitPerimeter=0;" edge="1" parent="6aV7GNjAsovPogsCfTCr-18">
          <mxGeometry width="50" height="50" relative="1" as="geometry">
            <mxPoint x="504.9" y="103.99999999999989" as="sourcePoint" />
            <mxPoint x="335.09999999999997" y="103.99999999999989" as="targetPoint" />
            <Array as="points">
              <mxPoint x="415.3" y="104" />
            </Array>
          </mxGeometry>
        </mxCell>
        <mxCell id="6aV7GNjAsovPogsCfTCr-28" value="" style="endArrow=classic;html=1;rounded=0;" edge="1" parent="6aV7GNjAsovPogsCfTCr-18">
          <mxGeometry width="50" height="50" relative="1" as="geometry">
            <mxPoint x="114" y="100" as="sourcePoint" />
            <mxPoint x="174" y="100" as="targetPoint" />
          </mxGeometry>
        </mxCell>
        <mxCell id="6aV7GNjAsovPogsCfTCr-29" value="" style="endArrow=classic;html=1;rounded=0;entryX=0.714;entryY=0.42;entryDx=0;entryDy=0;entryPerimeter=0;exitX=0.714;exitY=0.26;exitDx=0;exitDy=0;exitPerimeter=0;" edge="1" parent="6aV7GNjAsovPogsCfTCr-18">
          <mxGeometry width="50" height="50" relative="1" as="geometry">
            <mxPoint x="550.2" y="159.9999999999999" as="sourcePoint" />
            <mxPoint x="499.99999999999994" y="230.0000000000001" as="targetPoint" />
            <Array as="points" />
          </mxGeometry>
        </mxCell>
        <mxCell id="6aV7GNjAsovPogsCfTCr-30" value="2. enterInfo" style="text;html=1;align=center;verticalAlign=middle;whiteSpace=wrap;rounded=0;" vertex="1" parent="6aV7GNjAsovPogsCfTCr-18">
          <mxGeometry x="100" y="60" width="80" height="30" as="geometry" />
        </mxCell>
        <mxCell id="6aV7GNjAsovPogsCfTCr-31" value="3. compareInfo" style="text;html=1;align=center;verticalAlign=middle;whiteSpace=wrap;rounded=0;" vertex="1" parent="6aV7GNjAsovPogsCfTCr-18">
          <mxGeometry x="360" y="156" width="120" height="30" as="geometry" />
        </mxCell>
        <mxCell id="6aV7GNjAsovPogsCfTCr-32" value="1. startInterface" style="text;html=1;align=center;verticalAlign=middle;whiteSpace=wrap;rounded=0;" vertex="1" parent="6aV7GNjAsovPogsCfTCr-18">
          <mxGeometry x="360" y="29" width="120" height="30" as="geometry" />
        </mxCell>
        <mxCell id="6aV7GNjAsovPogsCfTCr-33" value="5. showInfo" style="text;html=1;align=center;verticalAlign=middle;whiteSpace=wrap;rounded=0;" vertex="1" parent="6aV7GNjAsovPogsCfTCr-18">
          <mxGeometry x="360" y="55" width="120" height="30" as="geometry" />
        </mxCell>
        <mxCell id="6aV7GNjAsovPogsCfTCr-34" value="4. [For all Members] getMember" style="text;html=1;align=center;verticalAlign=middle;whiteSpace=wrap;rounded=0;" vertex="1" parent="6aV7GNjAsovPogsCfTCr-18">
          <mxGeometry x="550" y="190" width="120" height="30" as="geometry" />
        </mxCell>
        <mxCell id="6aV7GNjAsovPogsCfTCr-35" value="sd 로그아웃 기능" style="shape=umlFrame;whiteSpace=wrap;html=1;pointerEvents=0;recursiveResize=0;container=1;collapsible=0;width=160;" vertex="1" parent="1">
          <mxGeometry x="40" y="840" width="700" height="340" as="geometry" />
        </mxCell>
        <mxCell id="6aV7GNjAsovPogsCfTCr-36" value="user" style="shape=umlActor;verticalLabelPosition=bottom;verticalAlign=top;html=1;outlineConnect=0;" vertex="1" parent="6aV7GNjAsovPogsCfTCr-35">
          <mxGeometry x="54" y="90" width="30" height="60" as="geometry" />
        </mxCell>
        <mxCell id="6aV7GNjAsovPogsCfTCr-37" value=":SignOutUI" style="shape=umlBoundary;whiteSpace=wrap;html=1;" vertex="1" parent="6aV7GNjAsovPogsCfTCr-35">
          <mxGeometry x="194" y="80" width="100" height="80" as="geometry" />
        </mxCell>
        <mxCell id="6aV7GNjAsovPogsCfTCr-38" value=":SignOut" style="ellipse;shape=umlControl;whiteSpace=wrap;html=1;" vertex="1" parent="6aV7GNjAsovPogsCfTCr-35">
          <mxGeometry x="550" y="80" width="70" height="80" as="geometry" />
        </mxCell>
        <mxCell id="6aV7GNjAsovPogsCfTCr-39" value=":System" style="ellipse;shape=umlEntity;whiteSpace=wrap;html=1;" vertex="1" parent="6aV7GNjAsovPogsCfTCr-35">
          <mxGeometry x="444" y="240" width="80" height="80" as="geometry" />
        </mxCell>
        <mxCell id="6aV7GNjAsovPogsCfTCr-40" value="" style="endArrow=none;html=1;rounded=0;" edge="1" parent="6aV7GNjAsovPogsCfTCr-35">
          <mxGeometry width="50" height="50" relative="1" as="geometry">
            <mxPoint x="294" y="120" as="sourcePoint" />
            <mxPoint x="544.0002426129174" y="119.85106486218262" as="targetPoint" />
          </mxGeometry>
        </mxCell>
        <mxCell id="6aV7GNjAsovPogsCfTCr-41" value="" style="endArrow=none;html=1;rounded=0;entryX=0.412;entryY=0.955;entryDx=0;entryDy=0;entryPerimeter=0;exitX=1;exitY=0;exitDx=0;exitDy=0;" edge="1" parent="6aV7GNjAsovPogsCfTCr-35" source="6aV7GNjAsovPogsCfTCr-39">
          <mxGeometry width="50" height="50" relative="1" as="geometry">
            <mxPoint x="514" y="290" as="sourcePoint" />
            <mxPoint x="572.8399999999999" y="156.4000000000001" as="targetPoint" />
          </mxGeometry>
        </mxCell>
        <mxCell id="6aV7GNjAsovPogsCfTCr-42" value="" style="endArrow=none;html=1;rounded=0;entryX=-0.004;entryY=0.473;entryDx=0;entryDy=0;entryPerimeter=0;" edge="1" parent="6aV7GNjAsovPogsCfTCr-35">
          <mxGeometry width="50" height="50" relative="1" as="geometry">
            <mxPoint x="94.4" y="120.89999999999999" as="sourcePoint" />
            <mxPoint x="194.00000000000014" y="119.11000000000003" as="targetPoint" />
          </mxGeometry>
        </mxCell>
        <mxCell id="6aV7GNjAsovPogsCfTCr-43" value="" style="endArrow=classic;html=1;rounded=0;entryX=0.729;entryY=0.16;entryDx=0;entryDy=0;entryPerimeter=0;" edge="1" parent="6aV7GNjAsovPogsCfTCr-35">
          <mxGeometry width="50" height="50" relative="1" as="geometry">
            <mxPoint x="334.85" y="140" as="sourcePoint" />
            <mxPoint x="505.15" y="140.0000000000001" as="targetPoint" />
          </mxGeometry>
        </mxCell>
        <mxCell id="6aV7GNjAsovPogsCfTCr-44" value="" style="endArrow=classic;html=1;rounded=0;entryX=0.414;entryY=0.38;entryDx=0;entryDy=0;entryPerimeter=0;exitX=0.714;exitY=0.26;exitDx=0;exitDy=0;exitPerimeter=0;" edge="1" parent="6aV7GNjAsovPogsCfTCr-35">
          <mxGeometry width="50" height="50" relative="1" as="geometry">
            <mxPoint x="504.9" y="99.99999999999989" as="sourcePoint" />
            <mxPoint x="335.09999999999997" y="99.99999999999989" as="targetPoint" />
            <Array as="points">
              <mxPoint x="415.3" y="100" />
            </Array>
          </mxGeometry>
        </mxCell>
        <mxCell id="6aV7GNjAsovPogsCfTCr-45" value="" style="endArrow=classic;html=1;rounded=0;" edge="1" parent="6aV7GNjAsovPogsCfTCr-35">
          <mxGeometry width="50" height="50" relative="1" as="geometry">
            <mxPoint x="114" y="100" as="sourcePoint" />
            <mxPoint x="174" y="100" as="targetPoint" />
          </mxGeometry>
        </mxCell>
        <mxCell id="6aV7GNjAsovPogsCfTCr-46" value="" style="endArrow=classic;html=1;rounded=0;entryX=0.714;entryY=0.42;entryDx=0;entryDy=0;entryPerimeter=0;exitX=0.714;exitY=0.26;exitDx=0;exitDy=0;exitPerimeter=0;" edge="1" parent="6aV7GNjAsovPogsCfTCr-35">
          <mxGeometry width="50" height="50" relative="1" as="geometry">
            <mxPoint x="550.2" y="159.9999999999999" as="sourcePoint" />
            <mxPoint x="499.99999999999994" y="230.0000000000001" as="targetPoint" />
            <Array as="points" />
          </mxGeometry>
        </mxCell>
        <mxCell id="6aV7GNjAsovPogsCfTCr-47" value="2. reqSignOut" style="text;html=1;align=center;verticalAlign=middle;whiteSpace=wrap;rounded=0;" vertex="1" parent="6aV7GNjAsovPogsCfTCr-35">
          <mxGeometry x="100" y="60" width="80" height="30" as="geometry" />
        </mxCell>
        <mxCell id="6aV7GNjAsovPogsCfTCr-48" value="3. reqSignOut" style="text;html=1;align=center;verticalAlign=middle;whiteSpace=wrap;rounded=0;" vertex="1" parent="6aV7GNjAsovPogsCfTCr-35">
          <mxGeometry x="360" y="156" width="120" height="30" as="geometry" />
        </mxCell>
        <mxCell id="6aV7GNjAsovPogsCfTCr-49" value="1. startInterface" style="text;html=1;align=center;verticalAlign=middle;whiteSpace=wrap;rounded=0;" vertex="1" parent="6aV7GNjAsovPogsCfTCr-35">
          <mxGeometry x="360" y="29" width="120" height="30" as="geometry" />
        </mxCell>
        <mxCell id="6aV7GNjAsovPogsCfTCr-50" value="5. showInfo" style="text;html=1;align=center;verticalAlign=middle;whiteSpace=wrap;rounded=0;" vertex="1" parent="6aV7GNjAsovPogsCfTCr-35">
          <mxGeometry x="360" y="55" width="120" height="30" as="geometry" />
        </mxCell>
        <mxCell id="6aV7GNjAsovPogsCfTCr-51" value="4. exitSystem" style="text;html=1;align=center;verticalAlign=middle;whiteSpace=wrap;rounded=0;" vertex="1" parent="6aV7GNjAsovPogsCfTCr-35">
          <mxGeometry x="550" y="190" width="120" height="30" as="geometry" />
        </mxCell>
        <mxCell id="6aV7GNjAsovPogsCfTCr-52" value="sd 자전거 등록 기능" style="shape=umlFrame;whiteSpace=wrap;html=1;pointerEvents=0;recursiveResize=0;container=1;collapsible=0;width=160;" vertex="1" parent="1">
          <mxGeometry x="40" y="1200" width="700" height="340" as="geometry" />
        </mxCell>
        <mxCell id="6aV7GNjAsovPogsCfTCr-53" value="admin" style="shape=umlActor;verticalLabelPosition=bottom;verticalAlign=top;html=1;outlineConnect=0;" vertex="1" parent="6aV7GNjAsovPogsCfTCr-52">
          <mxGeometry x="54" y="90" width="30" height="60" as="geometry" />
        </mxCell>
        <mxCell id="6aV7GNjAsovPogsCfTCr-54" value=":BikeRegisterUI" style="shape=umlBoundary;whiteSpace=wrap;html=1;" vertex="1" parent="6aV7GNjAsovPogsCfTCr-52">
          <mxGeometry x="194" y="70" width="126" height="100" as="geometry" />
        </mxCell>
        <mxCell id="6aV7GNjAsovPogsCfTCr-55" value=":BikeRegister" style="ellipse;shape=umlControl;whiteSpace=wrap;html=1;" vertex="1" parent="6aV7GNjAsovPogsCfTCr-52">
          <mxGeometry x="550" y="50" width="110" height="110" as="geometry" />
        </mxCell>
        <mxCell id="6aV7GNjAsovPogsCfTCr-56" value=":Bike" style="ellipse;shape=umlEntity;whiteSpace=wrap;html=1;" vertex="1" parent="6aV7GNjAsovPogsCfTCr-52">
          <mxGeometry x="444" y="240" width="80" height="80" as="geometry" />
        </mxCell>
        <mxCell id="6aV7GNjAsovPogsCfTCr-57" value="" style="endArrow=none;html=1;rounded=0;exitX=1.003;exitY=0.487;exitDx=0;exitDy=0;exitPerimeter=0;" edge="1" parent="6aV7GNjAsovPogsCfTCr-52" source="6aV7GNjAsovPogsCfTCr-54">
          <mxGeometry width="50" height="50" relative="1" as="geometry">
            <mxPoint x="330" y="120" as="sourcePoint" />
            <mxPoint x="550.0002426129174" y="119.71106486218262" as="targetPoint" />
          </mxGeometry>
        </mxCell>
        <mxCell id="6aV7GNjAsovPogsCfTCr-58" value="" style="endArrow=none;html=1;rounded=0;entryX=0.412;entryY=0.955;entryDx=0;entryDy=0;entryPerimeter=0;exitX=1;exitY=0;exitDx=0;exitDy=0;" edge="1" parent="6aV7GNjAsovPogsCfTCr-52" source="6aV7GNjAsovPogsCfTCr-56">
          <mxGeometry width="50" height="50" relative="1" as="geometry">
            <mxPoint x="514" y="290" as="sourcePoint" />
            <mxPoint x="572.8399999999999" y="156.4000000000001" as="targetPoint" />
          </mxGeometry>
        </mxCell>
        <mxCell id="6aV7GNjAsovPogsCfTCr-59" value="" style="endArrow=none;html=1;rounded=0;entryX=-0.004;entryY=0.473;entryDx=0;entryDy=0;entryPerimeter=0;" edge="1" parent="6aV7GNjAsovPogsCfTCr-52">
          <mxGeometry width="50" height="50" relative="1" as="geometry">
            <mxPoint x="94.4" y="120.89999999999999" as="sourcePoint" />
            <mxPoint x="194.00000000000014" y="119.11000000000003" as="targetPoint" />
          </mxGeometry>
        </mxCell>
        <mxCell id="6aV7GNjAsovPogsCfTCr-60" value="" style="endArrow=classic;html=1;rounded=0;entryX=0.729;entryY=0.16;entryDx=0;entryDy=0;entryPerimeter=0;" edge="1" parent="6aV7GNjAsovPogsCfTCr-52">
          <mxGeometry width="50" height="50" relative="1" as="geometry">
            <mxPoint x="334.85" y="140" as="sourcePoint" />
            <mxPoint x="505.15" y="140.0000000000001" as="targetPoint" />
          </mxGeometry>
        </mxCell>
        <mxCell id="6aV7GNjAsovPogsCfTCr-61" value="" style="endArrow=classic;html=1;rounded=0;entryX=0.414;entryY=0.38;entryDx=0;entryDy=0;entryPerimeter=0;exitX=0.714;exitY=0.26;exitDx=0;exitDy=0;exitPerimeter=0;" edge="1" parent="6aV7GNjAsovPogsCfTCr-52">
          <mxGeometry width="50" height="50" relative="1" as="geometry">
            <mxPoint x="509.79999999999995" y="99.99999999999989" as="sourcePoint" />
            <mxPoint x="339.99999999999994" y="99.99999999999989" as="targetPoint" />
            <Array as="points">
              <mxPoint x="420.2" y="100" />
            </Array>
          </mxGeometry>
        </mxCell>
        <mxCell id="6aV7GNjAsovPogsCfTCr-62" value="" style="endArrow=classic;html=1;rounded=0;" edge="1" parent="6aV7GNjAsovPogsCfTCr-52">
          <mxGeometry width="50" height="50" relative="1" as="geometry">
            <mxPoint x="114" y="100" as="sourcePoint" />
            <mxPoint x="174" y="100" as="targetPoint" />
          </mxGeometry>
        </mxCell>
        <mxCell id="6aV7GNjAsovPogsCfTCr-63" value="" style="endArrow=classic;html=1;rounded=0;entryX=0.714;entryY=0.42;entryDx=0;entryDy=0;entryPerimeter=0;exitX=0.714;exitY=0.26;exitDx=0;exitDy=0;exitPerimeter=0;" edge="1" parent="6aV7GNjAsovPogsCfTCr-52">
          <mxGeometry width="50" height="50" relative="1" as="geometry">
            <mxPoint x="550.2" y="159.9999999999999" as="sourcePoint" />
            <mxPoint x="499.99999999999994" y="230.0000000000001" as="targetPoint" />
            <Array as="points" />
          </mxGeometry>
        </mxCell>
        <mxCell id="6aV7GNjAsovPogsCfTCr-64" value="2. enterInfo" style="text;html=1;align=center;verticalAlign=middle;whiteSpace=wrap;rounded=0;" vertex="1" parent="6aV7GNjAsovPogsCfTCr-52">
          <mxGeometry x="100" y="60" width="80" height="30" as="geometry" />
        </mxCell>
        <mxCell id="6aV7GNjAsovPogsCfTCr-65" value="3. setBike" style="text;html=1;align=center;verticalAlign=middle;whiteSpace=wrap;rounded=0;" vertex="1" parent="6aV7GNjAsovPogsCfTCr-52">
          <mxGeometry x="360" y="156" width="120" height="30" as="geometry" />
        </mxCell>
        <mxCell id="6aV7GNjAsovPogsCfTCr-66" value="1. startInterface" style="text;html=1;align=center;verticalAlign=middle;whiteSpace=wrap;rounded=0;" vertex="1" parent="6aV7GNjAsovPogsCfTCr-52">
          <mxGeometry x="360" y="29" width="120" height="30" as="geometry" />
        </mxCell>
        <mxCell id="6aV7GNjAsovPogsCfTCr-67" value="6. showInfo" style="text;html=1;align=center;verticalAlign=middle;whiteSpace=wrap;rounded=0;" vertex="1" parent="6aV7GNjAsovPogsCfTCr-52">
          <mxGeometry x="360" y="55" width="120" height="30" as="geometry" />
        </mxCell>
        <mxCell id="6aV7GNjAsovPogsCfTCr-112" value=":Rental" style="ellipse;shape=umlEntity;whiteSpace=wrap;html=1;" vertex="1" parent="6aV7GNjAsovPogsCfTCr-52">
          <mxGeometry x="600" y="240" width="80" height="80" as="geometry" />
        </mxCell>
        <mxCell id="6aV7GNjAsovPogsCfTCr-114" value="" style="endArrow=classic;html=1;rounded=0;entryX=0.843;entryY=0.853;entryDx=0;entryDy=0;entryPerimeter=0;exitX=0.714;exitY=0.26;exitDx=0;exitDy=0;exitPerimeter=0;" edge="1" parent="6aV7GNjAsovPogsCfTCr-52" target="6aV7GNjAsovPogsCfTCr-52">
          <mxGeometry width="50" height="50" relative="1" as="geometry">
            <mxPoint x="530" y="290" as="sourcePoint" />
            <mxPoint x="539.8999999999999" y="349.8399999999999" as="targetPoint" />
            <Array as="points" />
          </mxGeometry>
        </mxCell>
        <mxCell id="6aV7GNjAsovPogsCfTCr-115" value="4. setBike" style="text;html=1;align=center;verticalAlign=middle;whiteSpace=wrap;rounded=0;" vertex="1" parent="6aV7GNjAsovPogsCfTCr-52">
          <mxGeometry x="440" y="170" width="120" height="30" as="geometry" />
        </mxCell>
        <mxCell id="6aV7GNjAsovPogsCfTCr-117" value="" style="endArrow=none;html=1;rounded=0;entryX=0;entryY=0.5;entryDx=0;entryDy=0;" edge="1" parent="6aV7GNjAsovPogsCfTCr-52" target="6aV7GNjAsovPogsCfTCr-112">
          <mxGeometry width="50" height="50" relative="1" as="geometry">
            <mxPoint x="524" y="280" as="sourcePoint" />
            <mxPoint x="574" y="230" as="targetPoint" />
          </mxGeometry>
        </mxCell>
        <mxCell id="6aV7GNjAsovPogsCfTCr-116" value="5. setRental" style="text;html=1;align=center;verticalAlign=middle;whiteSpace=wrap;rounded=0;" vertex="1" parent="6aV7GNjAsovPogsCfTCr-52">
          <mxGeometry x="500" y="290" width="120" height="30" as="geometry" />
        </mxCell>
        <mxCell id="6aV7GNjAsovPogsCfTCr-69" value="sd 자전거 대여 기능" style="shape=umlFrame;whiteSpace=wrap;html=1;pointerEvents=0;recursiveResize=0;container=1;collapsible=0;width=160;" vertex="1" parent="1">
          <mxGeometry x="40" y="1560" width="700" height="340" as="geometry" />
        </mxCell>
        <mxCell id="6aV7GNjAsovPogsCfTCr-70" value="member" style="shape=umlActor;verticalLabelPosition=bottom;verticalAlign=top;html=1;outlineConnect=0;" vertex="1" parent="6aV7GNjAsovPogsCfTCr-69">
          <mxGeometry x="54" y="90" width="30" height="60" as="geometry" />
        </mxCell>
        <mxCell id="6aV7GNjAsovPogsCfTCr-71" value=":BikeRentalUI" style="shape=umlBoundary;whiteSpace=wrap;html=1;" vertex="1" parent="6aV7GNjAsovPogsCfTCr-69">
          <mxGeometry x="194" y="70" width="126" height="100" as="geometry" />
        </mxCell>
        <mxCell id="6aV7GNjAsovPogsCfTCr-72" value=":BikeRental" style="ellipse;shape=umlControl;whiteSpace=wrap;html=1;" vertex="1" parent="6aV7GNjAsovPogsCfTCr-69">
          <mxGeometry x="550" y="50" width="110" height="110" as="geometry" />
        </mxCell>
        <mxCell id="6aV7GNjAsovPogsCfTCr-73" value=":Bike" style="ellipse;shape=umlEntity;whiteSpace=wrap;html=1;" vertex="1" parent="6aV7GNjAsovPogsCfTCr-69">
          <mxGeometry x="600" y="200" width="80" height="80" as="geometry" />
        </mxCell>
        <mxCell id="6aV7GNjAsovPogsCfTCr-74" value="" style="endArrow=none;html=1;rounded=0;exitX=1.003;exitY=0.487;exitDx=0;exitDy=0;exitPerimeter=0;" edge="1" parent="6aV7GNjAsovPogsCfTCr-69" source="6aV7GNjAsovPogsCfTCr-71">
          <mxGeometry width="50" height="50" relative="1" as="geometry">
            <mxPoint x="330" y="120" as="sourcePoint" />
            <mxPoint x="550.0002426129174" y="119.71106486218262" as="targetPoint" />
          </mxGeometry>
        </mxCell>
        <mxCell id="6aV7GNjAsovPogsCfTCr-75" value="" style="endArrow=none;html=1;rounded=0;entryX=-0.004;entryY=0.473;entryDx=0;entryDy=0;entryPerimeter=0;" edge="1" parent="6aV7GNjAsovPogsCfTCr-69">
          <mxGeometry width="50" height="50" relative="1" as="geometry">
            <mxPoint x="94.4" y="120.89999999999999" as="sourcePoint" />
            <mxPoint x="194.00000000000014" y="119.11000000000003" as="targetPoint" />
          </mxGeometry>
        </mxCell>
        <mxCell id="6aV7GNjAsovPogsCfTCr-76" value="" style="endArrow=classic;html=1;rounded=0;entryX=0.729;entryY=0.16;entryDx=0;entryDy=0;entryPerimeter=0;" edge="1" parent="6aV7GNjAsovPogsCfTCr-69">
          <mxGeometry width="50" height="50" relative="1" as="geometry">
            <mxPoint x="334" y="130" as="sourcePoint" />
            <mxPoint x="504.29999999999995" y="130.0000000000001" as="targetPoint" />
          </mxGeometry>
        </mxCell>
        <mxCell id="6aV7GNjAsovPogsCfTCr-77" value="" style="endArrow=classic;html=1;rounded=0;entryX=0.414;entryY=0.38;entryDx=0;entryDy=0;entryPerimeter=0;exitX=0.714;exitY=0.26;exitDx=0;exitDy=0;exitPerimeter=0;" edge="1" parent="6aV7GNjAsovPogsCfTCr-69">
          <mxGeometry width="50" height="50" relative="1" as="geometry">
            <mxPoint x="504.9" y="104.75999999999989" as="sourcePoint" />
            <mxPoint x="335.1" y="104.75999999999989" as="targetPoint" />
            <Array as="points">
              <mxPoint x="415.30000000000007" y="104.76" />
            </Array>
          </mxGeometry>
        </mxCell>
        <mxCell id="6aV7GNjAsovPogsCfTCr-78" value="" style="endArrow=classic;html=1;rounded=0;" edge="1" parent="6aV7GNjAsovPogsCfTCr-69">
          <mxGeometry width="50" height="50" relative="1" as="geometry">
            <mxPoint x="114" y="100" as="sourcePoint" />
            <mxPoint x="174" y="100" as="targetPoint" />
          </mxGeometry>
        </mxCell>
        <mxCell id="6aV7GNjAsovPogsCfTCr-79" value="" style="endArrow=classic;html=1;rounded=0;entryX=0.614;entryY=0.588;entryDx=0;entryDy=0;entryPerimeter=0;exitX=0.771;exitY=0.441;exitDx=0;exitDy=0;exitPerimeter=0;" edge="1" parent="6aV7GNjAsovPogsCfTCr-69">
          <mxGeometry width="50" height="50" relative="1" as="geometry">
            <mxPoint x="539.7" y="150.00000000000006" as="sourcePoint" />
            <mxPoint x="419.99999999999994" y="199.98000000000008" as="targetPoint" />
            <Array as="points" />
          </mxGeometry>
        </mxCell>
        <mxCell id="6aV7GNjAsovPogsCfTCr-80" value="4. selectBike" style="text;html=1;align=center;verticalAlign=middle;whiteSpace=wrap;rounded=0;" vertex="1" parent="6aV7GNjAsovPogsCfTCr-69">
          <mxGeometry x="100" y="60" width="80" height="30" as="geometry" />
        </mxCell>
        <mxCell id="6aV7GNjAsovPogsCfTCr-81" value="7. showInfo" style="text;html=1;align=center;verticalAlign=middle;whiteSpace=wrap;rounded=0;" vertex="1" parent="6aV7GNjAsovPogsCfTCr-69">
          <mxGeometry x="360" y="70" width="120" height="30" as="geometry" />
        </mxCell>
        <mxCell id="6aV7GNjAsovPogsCfTCr-82" value="3. startInterface" style="text;html=1;align=center;verticalAlign=middle;whiteSpace=wrap;rounded=0;" vertex="1" parent="6aV7GNjAsovPogsCfTCr-69">
          <mxGeometry x="360" y="50" width="120" height="30" as="geometry" />
        </mxCell>
        <mxCell id="6aV7GNjAsovPogsCfTCr-83" value="5. selectBike" style="text;html=1;align=center;verticalAlign=middle;whiteSpace=wrap;rounded=0;" vertex="1" parent="6aV7GNjAsovPogsCfTCr-69">
          <mxGeometry x="360" y="130" width="120" height="30" as="geometry" />
        </mxCell>
        <mxCell id="6aV7GNjAsovPogsCfTCr-84" value=":Rental" style="ellipse;shape=umlEntity;whiteSpace=wrap;html=1;" vertex="1" parent="6aV7GNjAsovPogsCfTCr-69">
          <mxGeometry x="330" y="194" width="80" height="80" as="geometry" />
        </mxCell>
        <mxCell id="6aV7GNjAsovPogsCfTCr-85" value="" style="endArrow=none;html=1;rounded=0;exitX=0.375;exitY=0.125;exitDx=0;exitDy=0;exitPerimeter=0;" edge="1" parent="6aV7GNjAsovPogsCfTCr-69" source="6aV7GNjAsovPogsCfTCr-73">
          <mxGeometry width="50" height="50" relative="1" as="geometry">
            <mxPoint x="580" y="206" as="sourcePoint" />
            <mxPoint x="630" y="156" as="targetPoint" />
          </mxGeometry>
        </mxCell>
        <mxCell id="6aV7GNjAsovPogsCfTCr-86" value="" style="endArrow=classic;html=1;rounded=0;entryX=0.914;entryY=0.57;entryDx=0;entryDy=0;entryPerimeter=0;exitX=0.871;exitY=0.5;exitDx=0;exitDy=0;exitPerimeter=0;" edge="1" parent="6aV7GNjAsovPogsCfTCr-69" target="6aV7GNjAsovPogsCfTCr-69">
          <mxGeometry width="50" height="50" relative="1" as="geometry">
            <mxPoint x="640" y="164" as="sourcePoint" />
            <mxPoint x="650.4999999999998" y="193.9200000000003" as="targetPoint" />
          </mxGeometry>
        </mxCell>
        <mxCell id="6aV7GNjAsovPogsCfTCr-87" value="" style="endArrow=none;html=1;rounded=0;exitX=0.98;exitY=0.273;exitDx=0;exitDy=0;exitPerimeter=0;entryX=0.188;entryY=0.89;entryDx=0;entryDy=0;entryPerimeter=0;" edge="1" parent="6aV7GNjAsovPogsCfTCr-69" source="6aV7GNjAsovPogsCfTCr-84" target="6aV7GNjAsovPogsCfTCr-72">
          <mxGeometry width="50" height="50" relative="1" as="geometry">
            <mxPoint x="430" y="210" as="sourcePoint" />
            <mxPoint x="480" y="160" as="targetPoint" />
          </mxGeometry>
        </mxCell>
        <mxCell id="6aV7GNjAsovPogsCfTCr-88" value="1. [For all Bikes] getBike" style="text;html=1;align=center;verticalAlign=middle;whiteSpace=wrap;rounded=0;" vertex="1" parent="6aV7GNjAsovPogsCfTCr-69">
          <mxGeometry x="520" y="170" width="120" height="30" as="geometry" />
        </mxCell>
        <mxCell id="6aV7GNjAsovPogsCfTCr-89" value="2. [For all Rentals] getRental" style="text;html=1;align=center;verticalAlign=middle;whiteSpace=wrap;rounded=0;" vertex="1" parent="6aV7GNjAsovPogsCfTCr-69">
          <mxGeometry x="420" y="210" width="120" height="30" as="geometry" />
        </mxCell>
        <mxCell id="6aV7GNjAsovPogsCfTCr-90" value="6. selectBike" style="text;html=1;align=center;verticalAlign=middle;whiteSpace=wrap;rounded=0;" vertex="1" parent="6aV7GNjAsovPogsCfTCr-69">
          <mxGeometry x="420" y="240" width="120" height="30" as="geometry" />
        </mxCell>
        <mxCell id="6aV7GNjAsovPogsCfTCr-91" value="sd 자전거 대여 정보 조회" style="shape=umlFrame;whiteSpace=wrap;html=1;pointerEvents=0;recursiveResize=0;container=1;collapsible=0;width=160;" vertex="1" parent="1">
          <mxGeometry x="40" y="1920" width="700" height="340" as="geometry" />
        </mxCell>
        <mxCell id="6aV7GNjAsovPogsCfTCr-92" value="member" style="shape=umlActor;verticalLabelPosition=bottom;verticalAlign=top;html=1;outlineConnect=0;" vertex="1" parent="6aV7GNjAsovPogsCfTCr-91">
          <mxGeometry x="54" y="90" width="30" height="60" as="geometry" />
        </mxCell>
        <mxCell id="6aV7GNjAsovPogsCfTCr-93" value=":BikeRental&lt;div&gt;InfoUI&lt;/div&gt;" style="shape=umlBoundary;whiteSpace=wrap;html=1;" vertex="1" parent="6aV7GNjAsovPogsCfTCr-91">
          <mxGeometry x="194" y="70" width="126" height="100" as="geometry" />
        </mxCell>
        <mxCell id="6aV7GNjAsovPogsCfTCr-94" value=":BikeRentalInfo" style="ellipse;shape=umlControl;whiteSpace=wrap;html=1;" vertex="1" parent="6aV7GNjAsovPogsCfTCr-91">
          <mxGeometry x="550" y="50" width="110" height="110" as="geometry" />
        </mxCell>
        <mxCell id="6aV7GNjAsovPogsCfTCr-95" value=":Bike" style="ellipse;shape=umlEntity;whiteSpace=wrap;html=1;" vertex="1" parent="6aV7GNjAsovPogsCfTCr-91">
          <mxGeometry x="600" y="200" width="80" height="80" as="geometry" />
        </mxCell>
        <mxCell id="6aV7GNjAsovPogsCfTCr-96" value="" style="endArrow=none;html=1;rounded=0;exitX=1.003;exitY=0.487;exitDx=0;exitDy=0;exitPerimeter=0;" edge="1" parent="6aV7GNjAsovPogsCfTCr-91" source="6aV7GNjAsovPogsCfTCr-93">
          <mxGeometry width="50" height="50" relative="1" as="geometry">
            <mxPoint x="330" y="120" as="sourcePoint" />
            <mxPoint x="550.0002426129174" y="119.71106486218262" as="targetPoint" />
          </mxGeometry>
        </mxCell>
        <mxCell id="6aV7GNjAsovPogsCfTCr-97" value="" style="endArrow=none;html=1;rounded=0;entryX=-0.004;entryY=0.473;entryDx=0;entryDy=0;entryPerimeter=0;" edge="1" parent="6aV7GNjAsovPogsCfTCr-91">
          <mxGeometry width="50" height="50" relative="1" as="geometry">
            <mxPoint x="94.4" y="120.89999999999999" as="sourcePoint" />
            <mxPoint x="194.00000000000014" y="119.11000000000003" as="targetPoint" />
          </mxGeometry>
        </mxCell>
        <mxCell id="6aV7GNjAsovPogsCfTCr-98" value="" style="endArrow=classic;html=1;rounded=0;entryX=0.729;entryY=0.16;entryDx=0;entryDy=0;entryPerimeter=0;" edge="1" parent="6aV7GNjAsovPogsCfTCr-91">
          <mxGeometry width="50" height="50" relative="1" as="geometry">
            <mxPoint x="334" y="130" as="sourcePoint" />
            <mxPoint x="504.29999999999995" y="130.0000000000001" as="targetPoint" />
          </mxGeometry>
        </mxCell>
        <mxCell id="6aV7GNjAsovPogsCfTCr-99" value="" style="endArrow=classic;html=1;rounded=0;entryX=0.414;entryY=0.38;entryDx=0;entryDy=0;entryPerimeter=0;exitX=0.714;exitY=0.26;exitDx=0;exitDy=0;exitPerimeter=0;" edge="1" parent="6aV7GNjAsovPogsCfTCr-91">
          <mxGeometry width="50" height="50" relative="1" as="geometry">
            <mxPoint x="504.9" y="104.75999999999989" as="sourcePoint" />
            <mxPoint x="335.1" y="104.75999999999989" as="targetPoint" />
            <Array as="points">
              <mxPoint x="415.30000000000007" y="104.76" />
            </Array>
          </mxGeometry>
        </mxCell>
        <mxCell id="6aV7GNjAsovPogsCfTCr-100" value="" style="endArrow=classic;html=1;rounded=0;" edge="1" parent="6aV7GNjAsovPogsCfTCr-91">
          <mxGeometry width="50" height="50" relative="1" as="geometry">
            <mxPoint x="114" y="100" as="sourcePoint" />
            <mxPoint x="174" y="100" as="targetPoint" />
          </mxGeometry>
        </mxCell>
        <mxCell id="6aV7GNjAsovPogsCfTCr-101" value="" style="endArrow=classic;html=1;rounded=0;entryX=0.629;entryY=0.765;entryDx=0;entryDy=0;entryPerimeter=0;exitX=0.771;exitY=0.441;exitDx=0;exitDy=0;exitPerimeter=0;" edge="1" parent="6aV7GNjAsovPogsCfTCr-91" target="6aV7GNjAsovPogsCfTCr-91">
          <mxGeometry width="50" height="50" relative="1" as="geometry">
            <mxPoint x="559.7" y="260.00000000000006" as="sourcePoint" />
            <mxPoint x="439.99999999999994" y="309.9800000000001" as="targetPoint" />
            <Array as="points" />
          </mxGeometry>
        </mxCell>
        <mxCell id="6aV7GNjAsovPogsCfTCr-102" value="2. selectBike" style="text;html=1;align=center;verticalAlign=middle;whiteSpace=wrap;rounded=0;" vertex="1" parent="6aV7GNjAsovPogsCfTCr-91">
          <mxGeometry x="100" y="60" width="80" height="30" as="geometry" />
        </mxCell>
        <mxCell id="6aV7GNjAsovPogsCfTCr-103" value="1. startInterface" style="text;html=1;align=center;verticalAlign=middle;whiteSpace=wrap;rounded=0;" vertex="1" parent="6aV7GNjAsovPogsCfTCr-91">
          <mxGeometry x="360" y="70" width="120" height="30" as="geometry" />
        </mxCell>
        <mxCell id="6aV7GNjAsovPogsCfTCr-104" value="3. showBikeDetails" style="text;html=1;align=center;verticalAlign=middle;whiteSpace=wrap;rounded=0;" vertex="1" parent="6aV7GNjAsovPogsCfTCr-91">
          <mxGeometry x="360" y="130" width="120" height="30" as="geometry" />
        </mxCell>
        <mxCell id="6aV7GNjAsovPogsCfTCr-105" value=":Rental" style="ellipse;shape=umlEntity;whiteSpace=wrap;html=1;" vertex="1" parent="6aV7GNjAsovPogsCfTCr-91">
          <mxGeometry x="330" y="194" width="80" height="80" as="geometry" />
        </mxCell>
        <mxCell id="6aV7GNjAsovPogsCfTCr-106" value="" style="endArrow=none;html=1;rounded=0;exitX=0.375;exitY=0.125;exitDx=0;exitDy=0;exitPerimeter=0;" edge="1" parent="6aV7GNjAsovPogsCfTCr-91" source="6aV7GNjAsovPogsCfTCr-95">
          <mxGeometry width="50" height="50" relative="1" as="geometry">
            <mxPoint x="580" y="206" as="sourcePoint" />
            <mxPoint x="630" y="156" as="targetPoint" />
          </mxGeometry>
        </mxCell>
        <mxCell id="6aV7GNjAsovPogsCfTCr-107" value="" style="endArrow=classic;html=1;rounded=0;entryX=0.914;entryY=0.57;entryDx=0;entryDy=0;entryPerimeter=0;exitX=0.871;exitY=0.5;exitDx=0;exitDy=0;exitPerimeter=0;" edge="1" parent="6aV7GNjAsovPogsCfTCr-91" target="6aV7GNjAsovPogsCfTCr-91">
          <mxGeometry width="50" height="50" relative="1" as="geometry">
            <mxPoint x="640" y="164" as="sourcePoint" />
            <mxPoint x="650.4999999999998" y="193.9200000000003" as="targetPoint" />
          </mxGeometry>
        </mxCell>
        <mxCell id="6aV7GNjAsovPogsCfTCr-109" value="4. getBike" style="text;html=1;align=center;verticalAlign=middle;whiteSpace=wrap;rounded=0;" vertex="1" parent="6aV7GNjAsovPogsCfTCr-91">
          <mxGeometry x="550" y="164" width="90" height="30" as="geometry" />
        </mxCell>
        <mxCell id="6aV7GNjAsovPogsCfTCr-110" value="5. getRental" style="text;html=1;align=center;verticalAlign=middle;whiteSpace=wrap;rounded=0;" vertex="1" parent="6aV7GNjAsovPogsCfTCr-91">
          <mxGeometry x="440" y="274" width="120" height="30" as="geometry" />
        </mxCell>
        <mxCell id="6aV7GNjAsovPogsCfTCr-118" value="" style="endArrow=none;html=1;rounded=0;entryX=0;entryY=0.5;entryDx=0;entryDy=0;" edge="1" parent="6aV7GNjAsovPogsCfTCr-91" target="6aV7GNjAsovPogsCfTCr-95">
          <mxGeometry width="50" height="50" relative="1" as="geometry">
            <mxPoint x="410" y="240" as="sourcePoint" />
            <mxPoint x="460" y="190" as="targetPoint" />
          </mxGeometry>
        </mxCell>
        <mxCell id="6aV7GNjAsovPogsCfTCr-119" value="`" style="text;whiteSpace=wrap;html=1;" vertex="1" parent="6aV7GNjAsovPogsCfTCr-91">
          <mxGeometry x="670" y="300" width="30" height="40" as="geometry" />
        </mxCell>
        <mxCell id="6aV7GNjAsovPogsCfTCr-111" value="" style="text;whiteSpace=wrap;html=1;" vertex="1" parent="1">
          <mxGeometry x="410" y="580" width="60" height="50" as="geometry" />
        </mxCell>
        <mxCell id="6aV7GNjAsovPogsCfTCr-120" value="&lt;br class=&quot;Apple-interchange-newline&quot;&gt;" style="text;whiteSpace=wrap;html=1;" vertex="1" parent="1">
          <mxGeometry x="680" y="2190" width="30" height="40" as="geometry" />
        </mxCell>
      </root>
    </mxGraphModel>
  </diagram>
</mxfile>
